<svg xmlns="http://www.w3.org/2000/svg" viewBox="0 0 512 512" role="img" aria-labelledby="title">
  <title>WhatsApp</title>
  <path fill="#25D366" d="M256 32C132.3 32 32 130.8 32 252.7c0 42.9 12.5 83 34.1 116.9L36 480l113.4-29.3c32.2 17.4 69.1 27.3 108.6 27.3 123.7 0 224-98.8 224-220.7S379.7 32 256 32z"/>
  <path fill="#FFF" d="M256.6 102.4c-83.6 0-151.4 66.7-151.4 149 0 26.3 7 51.9 20.2 74.3l-13.2 48.3 49.8-12.9c21.7 11.8 46.2 18 71.1 18h.1c83.6 0 151.3-66.7 151.3-149S340.2 102.4 256.6 102.4zm88.1 198.8c-3.6 10-21.1 19-29 20.3-7.4 1.2-16.8 1.7-27.1-1.6-6.2-2-14.1-4.6-24.4-9-42.9-18.2-70.9-60.6-73.1-63.5-2.2-2.9-17.5-23-17.5-43.8s10.8-31.1 14.7-35.3c3.8-4.2 8.3-5.2 11.1-5.2 2.8 0 5.5 0 7.9.1 2.5.1 5.8-1 9.1 6.9 3.4 8.3 11.5 28.7 12.5 30.8 1 2.1 1.7 4.5.4 7.4-1.2 2.9-1.8 4.7-3.7 7.2-1.8 2.5-3.9 5.5-5.6 7.4-1.8 2.1-3.7 4.4-1.6 8.6 2.1 4.2 9.3 15.3 19.9 24.7 13.7 12.1 25.2 15.8 29.4 17.6 4.2 1.8 6.6 1.5 9-1 2.5-2.5 10.5-12.1 13.4-16.3 2.8-4.2 5.7-3.5 9.6-2.1 4 1.4 25.1 11.7 29.4 13.8 4.2 2.1 7 3.1 8 4.8 1 1.6 1 9.5-2.6 19.5z"/>
</svg>
